<svg width="568" height="520" viewBox="0 0 568 520" fill="none" xmlns="http://www.w3.org/2000/svg">
  <path
    d="M299.333 0.999995C299.2 1.66666 299.2 5.4 299.333 9.26666C299.6 19.4 297.733 20.3333 275.2 20.3333C265.333 20.3333 252.267 19.8 246 19.1333C233.2 17.8 228.267 19 223.733 24.8667C220.4 29 210.4 68.4667 209.067 82.0667C208.4 90.0667 208.533 91 210.667 91C211.867 91 217.867 86.3333 223.867 80.6C264 42.0667 282.933 27 291.067 27C297.867 27 303.333 20.8667 303.333 13.4C303.2 8.2 299.867 -2.33334 299.333 0.999995Z"
    fill="white" />
  <path
    d="M405.333 23.6666C400.933 24.7333 386.533 27.1333 373.333 29C345.333 33 314.4 39 302 42.8666C290.933 46.3333 273.467 60.0666 245.2 87.4C219.6 112.333 219.6 111.933 252.667 108.333C316.533 101.267 347.333 100.067 374.933 103.667C404.533 107.533 459.6 117.533 474.933 121.933C482.133 123.933 490.267 121.667 496 115.8C500.533 111.4 505.467 99.9333 506.267 92.3333C506.667 87.9333 506.4 87.6666 502.4 87.2666C496.667 86.7333 492.933 89 491.867 93.4C490.267 101.267 487.067 110.467 485.333 112.867C483.467 115.267 483.067 115.133 476.267 109.8C469.067 104.333 453.467 87.9333 438.8 70.4666C431.2 61.5333 423.733 50.4666 416.133 37.2666L412.4 31H418.533C423.467 31 425.467 31.8 429.467 35.2666L434.4 39.6666L433.467 35.6666C432.933 33.4 430.533 29.6666 428.133 27.2666C422.8 21.9333 416.933 21 405.333 23.6666Z"
    fill="white" />
  <path
    d="M130 30.4667C130 31.6667 131.2 34.0667 132.667 35.9334C135.733 39.9334 135.867 42.8667 133.733 54.4667C132.4 61.9334 132.533 63.5334 134.667 68.2001C136.267 71.8001 138.4 74.0667 141.2 75.1334C151.6 79.2667 167.067 87.6667 173.067 92.4667C176.667 95.2667 180.4 97.6667 181.333 97.6667C184.667 97.6667 187.067 92.7334 188.533 82.3334C189.467 76.4667 192 63.9334 194.267 54.6001C196.4 45.2667 197.867 36.7334 197.467 35.6667C196.133 32.2001 192.667 33.5334 176.933 43.4001C161.6 53.0001 139.2 65.6667 137.467 65.6667C136.133 65.6667 136.533 58.4667 138.267 51.1334C139.467 45.9334 139.467 43.1334 138.133 38.7334C135.733 30.6001 130 24.8667 130 30.4667Z"
    fill="white" />
  <path
    d="M108 87.6667C107.333 87.9334 104.933 88.4667 102.8 89.0001C95.7333 90.4667 71.3333 116.333 58.8 135.267C56 139.4 48.2667 153.533 41.6 166.6L29.3333 190.333L17.6 196.467C2.53333 204.2 0 206.733 0 214.067C0 218.2 1.2 221.533 4.53333 226.733C6.93333 230.467 9.73333 233.667 10.8 233.667C13.3333 233.667 13.2 232.867 9.33333 227.8C7.46667 225.4 5.33333 221.533 4.53333 219.133C2.4 212.867 5.2 209.667 19.6 202.333C27.4667 198.2 36.9333 191.8 45.3333 184.6C65.3333 167.667 90.2667 147.8 99.0667 141.933C110.8 133.933 130.267 126.467 152.667 121.667C161.067 119.8 166 117.133 166 114.467C166 106.333 118.267 84.2001 108 87.6667Z"
    fill="white" />
  <path
    d="M182.267 107C178.667 110.467 177.2 115.667 178.933 119.4C179.867 121.4 179.733 123.533 178.533 126.333C174.533 135.533 178.133 141.667 187.333 141.667C194.667 141.667 201.6 138.6 207.733 132.6C220.8 120.067 219.333 108.333 205.067 108.333C201.467 108.333 197.467 107.4 196.133 106.333C192.4 103.533 185.733 103.8 182.267 107Z"
    fill="white" />
  <path
    d="M308.667 122.6C306.133 122.867 288.133 124.6 268.667 126.467C249.2 128.467 232.267 130.467 231.067 131.133C229.733 131.933 228.667 133.267 228.667 134.333C228.667 135.4 243.867 146.467 262.4 158.867C302.933 186.067 309.6 191 332.667 210.867C374.267 246.733 444.533 313.533 447.067 319.533C451.333 329.4 459.333 334.467 483.333 342.333C500.133 347.8 504.533 349.667 510.933 354.467C513.2 356.2 515.733 357.667 516.4 357.667C518 357.667 520.667 350.467 520.667 346.067C520.667 341.267 511.067 336.067 489.467 329C469.733 322.467 462.133 318.867 456.8 313.133C452.933 309 453.067 307.8 461.333 266.333C470.267 221.933 474 209.8 486.533 185.133C492.533 173.533 497.867 163.933 498.533 163.8C499.067 163.8 501.067 167.4 502.933 171.8C512.267 195.267 534.667 200.467 552.933 183.267C559.2 177.4 567.333 166.067 567.333 163.267C567.333 161.4 562.533 156.333 560.8 156.333C560.267 156.333 557.467 159.933 554.8 164.2C548.8 173.933 539.2 182.6 533.2 183.8C521.333 185.933 515.333 181.4 508.533 165C500.933 146.467 501.467 146.733 462.667 139.133C393.333 125.267 365.867 121.533 335.6 121.933C323.333 121.933 311.2 122.333 308.667 122.6Z"
    fill="white" />
  <path
    d="M144.533 143.667C120.4 149.667 112.133 154.867 67.4667 192.333C31.2 222.733 17.4667 235.533 13.4667 242.2C11.4667 245.533 8.66667 253.933 7.20001 260.733C5.73334 267.4 3.46667 275.267 2.13334 277.933C-0.666659 283.667 -0.266659 284.333 4.66667 284.333C9.73334 284.333 11.0667 282.333 14.4 268.467L17.3333 256.333L21.6 263.4C27.0667 272.6 29.6 278.733 32.6667 290.867C36.1333 304.6 42 339.667 42 346.867C42 355.8 37.8667 362.867 29.2 369C17.2 377.533 14.4 380.067 12.1333 384.867C9.60001 390.2 9.33334 398.733 11.6 403.933C13.7333 408.867 24.5333 424.333 25.8667 424.333C27.6 424.333 31.3333 419.533 31.3333 417.267C31.3333 416.067 28.9333 411.933 26 408.067C19.4667 399.4 16 391 17.2 386.333C17.7333 384.067 20.2667 381.667 24.2667 379.267C27.7333 377.267 33.3333 373.133 36.6667 370.067C43.3333 363.933 42.9333 364.867 65.4667 315C82 278.2 107.733 225.4 118.133 206.467C127.6 189.533 134.267 179.667 148.533 161.667C161.067 146.067 162.267 144.2 160.4 142.067C158.667 139.933 160 139.8 144.533 143.667Z"
    fill="white" />
  <path
    d="M204.667 152.333C203.2 155 204.667 214.6 206.8 241.667C208.4 262.733 215.867 303.8 232.8 385.267C244.267 440.2 245.333 443.533 255.867 453.933C258.8 456.867 265.2 461.533 269.867 464.2C274.533 466.867 279.467 470.467 280.8 472.333C284.533 477.4 282 486.333 273.067 499.4C265.067 511.133 264.667 514.467 270.8 518.6C273.467 520.333 274 520.067 278.4 513.933C290.533 497.533 294 484.2 288.933 474.2C285.6 467.667 282.533 464.867 268.667 455.267C262.533 451.133 256.8 446.467 255.733 444.867C253.733 441.667 249.867 444.6 297.333 413.667C325.6 395.267 343.733 384.333 345.733 384.333C347.467 384.333 372.4 416.2 376.133 423C377.867 426.2 378.533 430.467 378.667 437.133C378.667 445 378.133 447.267 375.333 451.267C370.933 457.933 366.133 460.333 358.133 460.333C349.333 460.333 338.533 456.467 328 449.667C318.267 443.4 313.333 442.867 307.6 447.667C295.6 457.667 305.467 470.867 333.333 481.933C342.8 485.667 345.6 486.2 357.333 486.2C374 486.333 381.333 483.4 391.333 472.867C407.467 455.8 410.267 432.6 398.8 410.067C397.067 406.467 390.133 396.733 383.467 388.2C376.8 379.667 371.333 372.2 371.333 371.8C371.333 369.667 422.933 346.2 424.4 347.533C424.933 348.067 425.333 361.533 425.333 377.4C425.333 405.133 425.467 406.6 428.533 412.733C432 419.8 437.467 424.467 445.2 427C456.267 430.6 486.667 425.667 486.667 420.333C486.667 418.867 485.333 418.467 481.333 418.733C478.4 418.867 470.8 419.133 464.4 419.4C453.733 419.667 452.667 419.4 449.333 416.333C442.267 409.933 441.6 406.067 440.667 373.667C440 346.067 439.733 343.133 436.933 337.4C431.067 325.533 333.6 235.133 293.067 204.067C273.2 188.733 212.8 149.667 209.2 149.667C207.467 149.667 205.467 150.867 204.667 152.333Z"
    fill="white" />
  <path
    d="M166.667 171.933C147.867 195.533 137.467 212.333 120.8 246.2C105.733 276.733 98.2666 292.6 68.8 357L56 385L56.5333 404.333C57.3333 439.4 57.3333 443.667 56.2667 449.267L55.0667 455H60.4C72 455 74.1333 448.2 71.3333 418.2C70.4 407.667 70 398.6 70.4 398.067C72.4 396.067 125.467 405.4 140.667 410.467C146.133 412.333 164 419.533 180.4 426.6L210 439.4V444.6C210 447.4 208.533 457.267 206.667 466.467C202.533 487.133 202.4 495 206.133 502.733C210.933 512.467 226 521.4 232 517.933C233.733 517 233.067 516.2 229.067 513.533C226.4 511.8 222.667 508.333 221.067 505.8C216.933 499.667 217.067 487.4 221.467 465C223.333 455.4 224.533 445.267 224.267 442.333C224 439.4 220.933 424.733 217.6 409.667C209.733 374.333 196.533 307.533 191.333 277.133C186.933 251 184.8 226.333 184.533 196.333C184.4 185.667 184 172.867 183.467 167.667C182.267 154.067 180.533 154.467 166.667 171.933Z"
    fill="white" />
</svg>